# xmcd
#
# Track frame offsets:
#	150
#	14413
#	28195
#	44271
#	58284
#	75453
#	90410
#	104948
#	119282
#	136394
#	151817
#	168494
#	182027
#
# Disc length: 2659 seconds
#
# Revision: 1
# Processed by: cddbd v1.5.2PL0 Copyright (c) Steve Scherf et al.
# Submitted via: audiograbber 1.83.01
#
DISCID=ab0a610d
DTITLE=Lady Antebellum - Heart Break
DYEAR=2017
DGENRE=Country
TTITLE0=Heart Break
TTITLE1=You Look Good
TTITLE2=Somebody Else's Heart
TTITLE3=This City
TTITLE4=Hurt
TTITLE5=Army
TTITLE6=Think About You
TTITLE7=Good Time To Be Alive
TTITLE8=Big Love in a Small Town
TTITLE9=Stars
TTITLE10=Teenage Heart
TTITLE11=Home
TTITLE12=Famous
EXTD=
EXTT0=
EXTT1=
EXTT2=
EXTT3=
EXTT4=
EXTT5=
EXTT6=
EXTT7=
EXTT8=
EXTT9=
EXTT10=
EXTT11=
EXTT12=
PLAYORDER=
